<svg id="Layer_1" data-name="Layer 1" xmlns="http://www.w3.org/2000/svg" width="1920.02" height="980" viewBox="0 0 1920.02 980">
  <defs>
    <style>
      .cls-1 {
        fill: #0b0c0f;
      }

      .cls-2 {
        fill: #fff;
      }

      .cls-3 {
        fill: none;
        stroke: #fff;
        stroke-miterlimit: 10;
        stroke-width: 1.3px;
      }
    </style>
  </defs>
  <path class="cls-1" d="M0,0V980H1920V0ZM845.17,494.08q-15.81,17.6-44.61,17.59H726.13V581H687.89V399H800.05q31.1,0,46.39,17.34,12.75,14.52,12.75,39.25Q859.19,478.53,845.17,494.08Zm177.66,80q-22.94,12-58.37,12-91.51,0-92.27-64h41.29q1.53,35.43,52.26,35.43,19.37,0,31.09-5.86,13.77-6.88,13.77-20.9,0-18.1-34.67-24.22-62.45-11.47-64.74-12.23-34.68-12.24-34.67-44.1,0-28.8,23.45-43.34,20.89-13,56.84-13,83.61,0,89,57.87h-41.3q-1-12-11.47-19.89-12.24-9.42-34.41-9.43-42.32,0-42.32,25,0,16.83,35.18,22.44,58.63,9.17,65.26,11.47,35.17,12.23,35.17,45.62Q1051.89,558.84,1022.83,574.12ZM1211.72,567q-21.67,18.1-62.2,18.1-35.94,0-57.61-14t-24-40h38.24q6.36,27,42.56,27,19.13,0,30.85-7.39,14.26-8.67,14.27-26.77,0-17.58-13-27.27-11.73-8.67-30.08-8.67-24.72,0-40.53,14l-35.68-.76,16.82-96.61h128.47v28.55H1117.4l-7.65,40.27q19.63-10.95,46.91-11,32.88,0,53.27,14,22.18,15.56,22.18,43.34Q1232.11,549.65,1211.72,567Z" transform="translate(0.01 0)"/>
  <g>
    <path class="cls-2" d="M610.35,399h2.88l7.12,11.5h0V399H623v15.6h-2.89L613,403.13H613V414.6h-2.6Z" transform="translate(0.01 0)"/>
    <path class="cls-2" d="M626.23,399h11.23v2.36H629v4.09h7.87v2.23H629v4.56h8.65v2.36H626.23Z" transform="translate(0.01 0)"/>
    <path class="cls-2" d="M638.47,399h2.77l2.82,11.93h0L647.25,399h2.8l3.06,11.93h0l2.9-11.93h2.78l-4.3,15.6h-2.78l-3.12-11.93h0l-3.19,11.93h-2.82Z" transform="translate(0.01 0)"/>
  </g>
  <g>
    <path class="cls-3" d="M1237.29,510.73q9.89,8.07,11.2,21.83h-12.84q-1.58-9-7.87-14t-16.39-4.92q-13.76,0-21.69,10.09t-7.93,27.66q0,17.7,7.67,27.73t21,10q12.06,0,19.2-7.41t7.28-23.13h-25.7V548.29h37.23v49.55h-10.75V585h-.26a26.57,26.57,0,0,1-11.67,10.62,38.89,38.89,0,0,1-17.69,3.94,35.48,35.48,0,0,1-34.22-22.42q-4.71-10.87-4.72-25.7,0-15.06,5.12-26a38.28,38.28,0,0,1,14.61-16.84q9.51-5.9,22.48-5.9Q1227.4,502.67,1237.29,510.73Z" transform="translate(0.01 0)"/>
    <path class="cls-3" d="M1279.82,570.05l-10.22,27.79h-12.85l35.4-93.34h16.38l35.53,93.34h-13L1321,570.05ZM1314,550.91q-8-22-13.5-38h-.27q-5.51,16-13.5,38l-3.15,8.52h33.43Z" transform="translate(0.01 0)"/>
    <path class="cls-3" d="M1436.87,597.84V550.39q0-11.8.26-35.66h-.26q-4.71,13.63-11,30.94l-1.7,4.72-17.31,47.45H1393l-17.31-47.45-1.7-4.72q-6.3-17.31-11-30.94h-.27q.27,23.87.27,35.66v47.45h-11.8V504.5h19.4l16.91,46q6.29,17.7,12.32,35.79h.26q6-18.1,12.33-35.79l16.78-46h19.53v93.34Z" transform="translate(0.01 0)"/>
    <path class="cls-3" d="M1482.36,515.25v29.5h45.36v10.62h-45.36v31.72h49.55v10.75H1470.3V504.5h60.17v10.75Z" transform="translate(0.01 0)"/>
  </g>
  <path class="cls-1" d="M790.36,427.55H726.13v55.57h61.43q17.07,0,24.72-5.61,8.67-6.36,8.67-21.92Q821,427.55,790.36,427.55Z" transform="translate(0.01 0)"/>
</svg>
